HIERARCHY
ROOT Pelvis
{
	OFFSET 0.000000 0.000000 0.000000
	CHANNELS 6 Xposition Yposition Zposition Xrotation Yrotation Zrotation
	JOINT LeftUpLeg_virtual
	{
		OFFSET 0.000000 0.000000 0.000000
		CHANNELS 3 Xrotation Yrotation Zrotation
		JOINT LeftUpLeg
		{
			OFFSET 18.735201 -5.666702 -4.541200
			CHANNELS 3 Xrotation Yrotation Zrotation
			JOINT LeftLeg
			{
				OFFSET -0.021200 -31.938179 0.493100
				CHANNELS 3 Xrotation Yrotation Zrotation
				JOINT LeftFoot
				{
					OFFSET 0.021200 -31.938179 -4.336299
					CHANNELS 3 Xrotation Yrotation Zrotation
					JOINT LeftToeBase
					{
						OFFSET 0.943001 -26.722000 15.023500
						CHANNELS 3 Xrotation Yrotation Zrotation
						End Site
						{
							OFFSET 0 0 0
						}
					}
				}
			}
		}
	}
	JOINT RightUpLeg_virtual
	{
		OFFSET 0.000000 0.000000 0.000000
		CHANNELS 3 Xrotation Yrotation Zrotation
		JOINT RightUpLeg
		{
			OFFSET -18.735201 -5.666702 -4.541200
			CHANNELS 3 Xrotation Yrotation Zrotation
			JOINT RightLeg
			{
				OFFSET 0.018946 -31.938133 0.493100
				CHANNELS 3 Xrotation Yrotation Zrotation
				JOINT RightFoot
				{
					OFFSET -0.018946 -31.938126 -4.336299
					CHANNELS 3 Xrotation Yrotation Zrotation
					JOINT RightToeBase
					{
						OFFSET -0.943001 -26.722004 15.023500
						CHANNELS 3 Xrotation Yrotation Zrotation
						End Site
						{
							OFFSET 0 0 0
						}
					}
				}
			}
		}
	}
	JOINT Hips_virtual
	{
		OFFSET 0.000000 0.000000 0.000000
		CHANNELS 3 Xrotation Yrotation Zrotation
		JOINT Hips
		{
			OFFSET -0.000000 -0.000000 -0.000000
			CHANNELS 3 Xrotation Yrotation Zrotation
			JOINT Spine
			{
				OFFSET 0.000000 10.199997 -0.299500
				CHANNELS 3 Xrotation Yrotation Zrotation
				JOINT Spine1
				{
					OFFSET 0.000000 11.900002 -1.516600
					CHANNELS 3 Xrotation Yrotation Zrotation
					JOINT Spine2
					{
						OFFSET 0.000000 13.600006 -2.842500
						CHANNELS 3 Xrotation Yrotation Zrotation
						JOINT Neck_virtual
						{
							OFFSET 0.000000 0.000000 0.000000
							CHANNELS 3 Xrotation Yrotation Zrotation
							JOINT Neck
							{
								OFFSET 0.000000 9.624100 -2.890100
								CHANNELS 3 Xrotation Yrotation Zrotation
								JOINT Head
								{
									OFFSET 0.000000 14.068802 -1.351900
									CHANNELS 3 Xrotation Yrotation Zrotation
									End Site
									{
										OFFSET 0 0 0
									}
								}
							}
						}
						JOINT LeftShoulder_virtual
						{
							OFFSET 0.000000 0.000000 0.000000
							CHANNELS 3 Xrotation Yrotation Zrotation
							JOINT LeftShoulder
							{
								OFFSET 15.263000 10.923401 -0.547700
								CHANNELS 3 Xrotation Yrotation Zrotation
								JOINT LeftArm
								{
									OFFSET 25.438599 -2.830597 -13.032500
									CHANNELS 3 Xrotation Yrotation Zrotation
									JOINT LeftForeArm
									{
										OFFSET 29.960503 0.000000 0.000000
										CHANNELS 3 Xrotation Yrotation Zrotation
										JOINT LeftHand
										{
											OFFSET 27.849251 0.000000 0.000000
											CHANNELS 3 Xrotation Yrotation Zrotation
											End Site
											{
												OFFSET 0 0 0
											}
										}
									}
								}
							}
						}
						JOINT RightShoulder_virtual
						{
							OFFSET 0.000000 0.000000 0.000000
							CHANNELS 3 Xrotation Yrotation Zrotation
							JOINT RightShoulder
							{
								OFFSET -15.263000 10.923401 -0.547700
								CHANNELS 3 Xrotation Yrotation Zrotation
								JOINT RightArm
								{
									OFFSET -25.438599 -2.830597 -13.032500
									CHANNELS 3 Xrotation Yrotation Zrotation
									JOINT RightForeArm
									{
										OFFSET -29.960503 0.000000 0.000000
										CHANNELS 3 Xrotation Yrotation Zrotation
										JOINT RightHand
										{
											OFFSET -27.849251 0.000000 0.000000
											CHANNELS 3 Xrotation Yrotation Zrotation
											End Site
											{
												OFFSET 0 0 0
											}
										}
									}
								}
							}
						}
					}
				}
			}
		}
	}
}
MOTION
Frames: 5
Frame Time: 0.03333333
-2.912027 92.873413 -1.511795 0.000000 0.000000 0.000000 9.213701 -8.990178 -4.771873 -26.851912 10.559696 9.685350 33.418709 2.038696 1.619364 -14.419889 1.414173 -1.598256 0.000000 0.000000 0.000000 4.690175 -3.814784 3.197838 -24.228792 -6.481576 -11.687765 35.188151 -5.347082 -0.317268 -14.475469 -8.804875 6.878817 0.000000 0.000000 0.000000 2.518519 5.456631 1.367124 -25.893196 -7.304368 -0.935130 18.936923 3.109275 -4.177034 11.191011 1.328395 -2.969074 0.000000 0.000000 0.000000 18.873737 2.549613 -3.529431 6.734023 0.428233 -1.227187 0.000000 0.000000 0.000000 15.108266 1.252220 -3.222035 3.829355 -13.110121 -15.892887 -1.772820 -28.605792 -40.276902 12.231482 -63.021807 6.940357 0.000000 0.000000 0.000000 13.696119 5.524691 0.954368 4.216052 20.306743 8.408313 23.945556 31.866490 27.763280 18.080464 54.303965 -7.513199 0.000000 0.000000 0.000000 
-2.618660 92.975922 -1.315121 0.000000 0.000000 0.000000 9.416618 -8.573300 -5.009894 -26.608044 10.778645 9.463249 32.711292 2.028565 1.757581 -14.943419 1.355596 -1.396716 0.000000 0.000000 0.000000 4.812081 -3.957371 3.127068 -24.110363 -6.521364 -11.801667 34.988433 -5.210357 -0.299255 -14.609713 -8.693617 6.998271 0.000000 0.000000 0.000000 2.139404 4.855249 1.519581 -25.735729 -6.920247 -0.073705 18.164784 3.017480 -4.245644 10.614223 1.326270 -2.995402 0.000000 0.000000 0.000000 18.268381 2.533502 -3.508336 6.419048 0.465470 -1.217878 0.000000 0.000000 0.000000 14.399944 1.269163 -3.149529 3.924837 -12.537603 -15.349978 -0.770758 -27.260231 -40.500153 11.740180 -61.425073 6.361699 0.000000 0.000000 0.000000 13.346231 5.256132 0.701717 4.593942 19.483905 7.793461 25.164975 31.743693 27.695787 18.812605 54.627959 -8.007513 0.000000 0.000000 0.000000 
-2.175645 92.983246 -1.226274 0.000000 0.000000 0.000000 9.608871 -8.242755 -5.241639 -26.396516 10.975232 9.248100 32.126222 2.016240 1.878884 -15.379744 1.299213 -1.221932 0.000000 0.000000 0.000000 4.850768 -4.226491 3.010529 -24.120717 -6.570071 -11.980566 34.840371 -5.086331 -0.265720 -14.713085 -8.599733 7.135543 0.000000 0.000000 0.000000 1.831518 4.236190 1.656878 -25.256119 -6.676381 0.753179 17.385102 2.911513 -4.340281 10.035811 1.318992 -3.030638 0.000000 0.000000 0.000000 17.613395 2.506378 -3.557637 6.082100 0.498711 -1.248337 0.000000 0.000000 0.000000 13.724820 1.259980 -3.047554 4.029454 -12.103105 -14.696122 0.661390 -25.735610 -40.454131 11.394005 -59.372348 5.876281 0.000000 0.000000 0.000000 12.931857 4.981155 0.458072 4.880408 18.612453 7.203450 26.134129 31.385105 27.910653 19.295450 54.665460 -8.235464 0.000000 0.000000 0.000000 
-1.846041 92.957375 -1.114008 0.000000 0.000000 0.000000 9.801540 -7.989289 -5.456052 -26.201837 11.150179 9.051023 31.651855 2.010395 1.986900 -15.732465 1.252287 -1.062579 0.000000 0.000000 0.000000 4.785823 -4.574526 2.851812 -24.283028 -6.612293 -12.214313 34.742112 -4.969781 -0.226967 -14.788531 -8.512712 7.277329 0.000000 0.000000 0.000000 1.639185 3.792372 1.735859 -24.466018 -6.160043 1.372468 16.633736 2.813084 -4.437833 9.485482 1.317921 -3.067913 0.000000 0.000000 0.000000 16.915628 2.490302 -3.626929 5.727488 0.535271 -1.290680 0.000000 0.000000 0.000000 13.098884 1.251090 -2.927018 4.158235 -11.726059 -13.975058 2.530967 -24.078488 -40.249707 11.246897 -56.962343 5.495505 0.000000 0.000000 0.000000 12.497310 4.738641 0.240633 5.103227 17.836996 6.720891 27.115267 31.167389 28.417082 19.792923 54.780156 -8.344067 0.000000 0.000000 0.000000 
-1.462261 92.941376 -1.091103 0.000000 0.000000 0.000000 9.975461 -7.798750 -5.655914 -26.046867 11.303926 8.872202 31.279101 2.008540 2.084652 -16.007358 1.211145 -0.915338 0.000000 0.000000 0.000000 4.715064 -4.907007 2.694588 -24.453935 -6.649423 -12.445373 34.688222 -4.853472 -0.173310 -14.843002 -8.430961 7.445032 0.000000 0.000000 0.000000 1.511749 3.489913 1.788450 -23.547569 -5.402850 1.966864 15.977389 2.729525 -4.541160 8.988823 1.316816 -3.108167 0.000000 0.000000 0.000000 16.161688 2.461243 -3.648325 5.349791 0.554626 -1.307926 0.000000 0.000000 0.000000 12.537713 1.248031 -2.792927 4.321134 -11.373988 -13.206407 4.678489 -22.313132 -40.037633 11.267872 -54.362794 5.193841 0.000000 0.000000 0.000000 12.034244 4.515649 0.048050 5.254724 17.123979 6.333397 27.876463 30.807158 29.219809 20.071995 54.670617 -8.192424 0.000000 0.000000 0.000000 
